<svg width="60" height="15" viewBox="0 0 60 15" fill="none" xmlns="http://www.w3.org/2000/svg">
<g clip-path="url(#clip0_387_9882)">
<path d="M6.31932 2.1543H2.03857C2.03857 2.1543 2 2.19284 2 2.23138V12.9847C2 13.0233 2.03857 13.0233 2.03857 13.0233H6.31932C9.32741 13.0233 11.757 10.5951 11.757 7.58879C11.757 4.58247 9.32741 2.1543 6.31932 2.1543ZM6.16506 10.4795H4.69958V4.6981H6.20362C7.7848 4.6981 9.09602 6.00855 9.09602 7.58879C9.05746 9.16902 7.7848 10.4795 6.16506 10.4795Z" fill="white"/>
<path d="M18.5055 2.03906C15.4589 2.03906 12.9521 4.54432 12.9521 7.58917C12.9521 10.634 15.4589 13.1393 18.5055 13.1393C21.5522 13.1393 24.059 10.634 24.059 7.58917C24.059 4.54432 21.5522 2.03906 18.5055 2.03906ZM18.5055 10.5955C16.8858 10.5955 15.6517 9.28505 15.6517 7.58917C15.6517 5.89331 16.9244 4.58287 18.5055 4.58287C20.1253 4.58287 21.3594 5.89331 21.3594 7.58917C21.3594 9.28505 20.0868 10.5955 18.5055 10.5955Z" fill="white"/>
<path d="M53.446 2.03906C50.3993 2.03906 47.8926 4.54432 47.8926 7.58917C47.8926 10.634 50.3993 13.1393 53.446 13.1393C56.4927 13.1393 58.9994 10.634 58.9994 7.58917C59.0381 4.54432 56.5313 2.03906 53.446 2.03906ZM53.446 10.5955C51.8263 10.5955 50.5923 9.28505 50.5923 7.58917C50.5923 5.89331 51.8649 4.58287 53.446 4.58287C55.0657 4.58287 56.2999 5.89331 56.2999 7.58917C56.3385 9.28505 55.0657 10.5955 53.446 10.5955Z" fill="white"/>
<path d="M42.3396 4.58235C42.3781 4.58235 42.4167 4.58235 42.4552 4.58235C43.535 4.62088 44.1521 5.23757 44.5377 5.73862C44.6149 5.85425 44.692 5.96988 44.7692 6.08551C44.7692 6.12404 44.8077 6.12404 44.8463 6.08551L47.0445 4.89069C47.0831 4.89069 47.0831 4.85214 47.0445 4.81361C45.8103 2.84793 44.1906 2 42.3396 2C39.3314 2 36.7861 4.42817 36.7861 7.55012C36.7861 10.6721 39.3314 13.1002 42.3396 13.1002C44.1906 13.1002 45.8103 12.2523 47.0445 10.2866C47.0445 10.2481 47.0445 10.2481 47.0445 10.2095L44.8463 9.01473C44.8077 9.01473 44.8077 9.01473 44.7692 9.01473C44.692 9.13035 44.6149 9.24598 44.5377 9.36161C44.1521 9.90121 43.535 10.4794 42.4552 10.5179C42.4167 10.5179 42.3781 10.5179 42.3396 10.5179C40.7583 10.5179 39.4857 9.1689 39.4857 7.51157C39.4857 5.93133 40.7583 4.58235 42.3396 4.58235Z" fill="white"/>
<path d="M35.2815 6.74124C35.3585 4.12036 33.0832 2.03906 30.2293 2.03906C27.8769 2.03906 25.6016 3.85055 25.6016 6.35582V12.9466C25.6016 12.9851 25.6401 12.9851 25.6401 12.9851H28.224C28.2625 12.9851 28.2625 12.9466 28.2625 12.9466V6.74124C28.2625 5.58497 29.1881 4.6214 30.3451 4.58287C31.5406 4.54432 32.5433 5.39226 32.5433 6.58708C32.5433 7.55064 31.7334 8.62983 30.0752 8.66836C30.0365 8.66836 29.998 8.70691 30.0365 8.74546L32.6204 12.9851L32.6589 13.0237H35.9756C36.0142 13.0237 36.0527 12.9851 36.0142 12.9466L33.7774 9.59339C34.7416 8.86109 35.2428 7.82043 35.2815 6.74124Z" fill="white"/>
</g>
<defs>
<clipPath id="clip0_387_9882">
<rect width="57" height="11.1792" fill="white" transform="translate(2 2)"/>
</clipPath>
</defs>
</svg>
