<svg width="26" height="38" viewBox="0 0 26 38" fill="none" xmlns="http://www.w3.org/2000/svg">
<g clip-path="url(#clip0_384_9876)">
<path fill-rule="evenodd" clip-rule="evenodd" d="M13 0.5C5.8175 0.5 0 6.27328 0 13.4181C0 21.0733 5.59 23.944 9.55499 30.5784C12.09 34.8207 11.3425 37.5 13 37.5C14.7225 37.5 13.975 34.7569 16.445 30.6422C20.085 24.3586 26 21.1052 26 13.4181C26 6.27328 20.1825 0.5 13 0.5Z" fill="#C9DC44"/>
<path fill-rule="evenodd" clip-rule="evenodd" d="M13.0167 35.5C12.7836 35.5 12.7171 35.4346 12.3176 34.225C11.9848 33.1789 11.4854 31.5769 10.1873 29.6154C8.92233 27.6866 7.59085 26.1173 6.32594 24.6135C3.36339 21.0174 1 18.2057 1 13.1385C1.03329 6.69808 6.39251 1.5 13.0167 1.5C19.6408 1.5 25 6.73078 25 13.1385C25 18.2057 22.6699 21.05 19.6741 24.6462C18.4425 26.15 17.1443 27.7193 15.8793 29.6154C14.6144 31.5442 14.0818 33.1135 13.749 34.1596C13.3495 35.4346 13.2497 35.5 13.0167 35.5Z" fill="#CFE942"/>
<path fill-rule="evenodd" clip-rule="evenodd" d="M13 18.5C15.7614 18.5 18 16.2614 18 13.5C18 10.7386 15.7614 8.5 13 8.5C10.2386 8.5 8 10.7386 8 13.5C8 16.2614 10.2386 18.5 13 18.5Z" fill="#A7BE38"/>
</g>
<defs>
<clipPath id="clip0_384_9876">
<rect width="26" height="38" fill="white"/>
</clipPath>
</defs>
</svg>
